<svg width="502" height="506" viewBox="0 0 502 506" fill="none" xmlns="http://www.w3.org/2000/svg">
<path fill-rule="evenodd" clip-rule="evenodd" d="M300 256C300 283.614 277.614 306 250 306C222.386 306 200 283.614 200 256C200 228.386 222.386 206 250 206C277.614 206 300 228.386 300 256ZM299 256C299 283.062 277.062 305 250 305C222.938 305 201 283.062 201 256C201 228.938 222.938 207 250 207C277.062 207 299 228.938 299 256Z" fill="url(#paint0_linear_301_30354)"/>
<path fill-rule="evenodd" clip-rule="evenodd" d="M340 256C340 305.706 299.706 346 250 346C200.294 346 160 305.706 160 256C160 206.294 200.294 166 250 166C299.706 166 340 206.294 340 256ZM339 256C339 305.153 299.153 345 250 345C200.847 345 161 305.153 161 256C161 206.847 200.847 167 250 167C299.153 167 339 206.847 339 256Z" fill="url(#paint1_linear_301_30354)"/>
<path fill-rule="evenodd" clip-rule="evenodd" d="M250 386C321.797 386 380 327.797 380 256C380 184.203 321.797 126 250 126C178.203 126 120 184.203 120 256C120 327.797 178.203 386 250 386ZM250 385C321.245 385 379 327.245 379 256C379 184.755 321.245 127 250 127C178.755 127 121 184.755 121 256C121 327.245 178.755 385 250 385Z" fill="url(#paint2_linear_301_30354)"/>
<path fill-rule="evenodd" clip-rule="evenodd" d="M420 256C420 349.888 343.888 426 250 426C156.112 426 80 349.888 80 256C80 162.112 156.112 86 250 86C343.888 86 420 162.112 420 256ZM419 256C419 349.336 343.336 425 250 425C156.664 425 81 349.336 81 256C81 162.664 156.664 87 250 87C343.336 87 419 162.664 419 256Z" fill="url(#paint3_linear_301_30354)"/>
<path fill-rule="evenodd" clip-rule="evenodd" d="M250 466C365.98 466 460 371.98 460 256C460 140.02 365.98 46 250 46C134.02 46 40 140.02 40 256C40 371.98 134.02 466 250 466ZM250 465C365.428 465 459 371.428 459 256C459 140.572 365.428 47 250 47C134.572 47 41 140.572 41 256C41 371.428 134.572 465 250 465Z" fill="url(#paint4_linear_301_30354)"/>
<path fill-rule="evenodd" clip-rule="evenodd" d="M500 256C500 394.071 388.071 506 250 506C111.929 506 0 394.071 0 256C0 117.929 111.929 6 250 6C388.071 6 500 117.929 500 256ZM499 256C499 393.519 387.519 505 250 505C112.481 505 1 393.519 1 256C1 118.481 112.481 7 250 7C387.519 7 499 118.481 499 256Z" fill="url(#paint5_linear_301_30354)"/>
<circle cx="253" cy="6" r="6" fill="url(#paint6_linear_301_30354)"/>
<circle cx="139" cy="127" r="6" fill="url(#paint7_linear_301_30354)"/>
<circle cx="133" cy="202" r="6" fill="url(#paint8_linear_301_30354)"/>
<circle cx="424" cy="139" r="6" fill="url(#paint9_linear_301_30354)"/>
<circle cx="106.5" cy="51.5" r="4.5" fill="url(#paint10_linear_301_30354)"/>
<circle cx="309.5" cy="55.5" r="4.5" fill="url(#paint11_linear_301_30354)"/>
<circle cx="235.5" cy="86.5" r="4.5" fill="url(#paint12_linear_301_30354)"/>
<circle cx="328.5" cy="152.5" r="4.5" fill="url(#paint13_linear_301_30354)"/>
<circle cx="447.5" cy="103.5" r="4.5" fill="url(#paint14_linear_301_30354)"/>
<circle cx="404.375" cy="186.375" r="3.375" fill="url(#paint15_linear_301_30354)"/>
<circle cx="382.375" cy="43.375" r="3.375" fill="url(#paint16_linear_301_30354)"/>
<circle cx="498.375" cy="226.375" r="3.375" fill="url(#paint17_linear_301_30354)"/>
<circle cx="205.375" cy="51.375" r="3.375" fill="url(#paint18_linear_301_30354)"/>
<circle cx="201.375" cy="135.375" r="3.375" fill="url(#paint19_linear_301_30354)"/>
<circle cx="3.375" cy="222.375" r="3.375" fill="url(#paint20_linear_301_30354)"/>
<circle cx="68.375" cy="151.375" r="3.375" fill="url(#paint21_linear_301_30354)"/>
<defs>
<linearGradient id="paint0_linear_301_30354" x1="250" y1="6" x2="250" y2="506" gradientUnits="userSpaceOnUse">
<stop stop-color="#AEAEAE"/>
<stop offset="1" stop-color="#EAEAEA"/>
</linearGradient>
<linearGradient id="paint1_linear_301_30354" x1="250" y1="6" x2="250" y2="506" gradientUnits="userSpaceOnUse">
<stop stop-color="#AEAEAE"/>
<stop offset="1" stop-color="#EAEAEA"/>
</linearGradient>
<linearGradient id="paint2_linear_301_30354" x1="250" y1="6" x2="250" y2="506" gradientUnits="userSpaceOnUse">
<stop stop-color="#AEAEAE"/>
<stop offset="1" stop-color="#EAEAEA"/>
</linearGradient>
<linearGradient id="paint3_linear_301_30354" x1="250" y1="6" x2="250" y2="506" gradientUnits="userSpaceOnUse">
<stop stop-color="#AEAEAE"/>
<stop offset="1" stop-color="#EAEAEA"/>
</linearGradient>
<linearGradient id="paint4_linear_301_30354" x1="250" y1="6" x2="250" y2="506" gradientUnits="userSpaceOnUse">
<stop stop-color="#AEAEAE"/>
<stop offset="1" stop-color="#EAEAEA"/>
</linearGradient>
<linearGradient id="paint5_linear_301_30354" x1="250" y1="6" x2="250" y2="506" gradientUnits="userSpaceOnUse">
<stop stop-color="#AEAEAE"/>
<stop offset="1" stop-color="#EAEAEA"/>
</linearGradient>
<linearGradient id="paint6_linear_301_30354" x1="253" y1="0" x2="253" y2="12" gradientUnits="userSpaceOnUse">
<stop stop-color="#D195E2"/>
<stop offset="1" stop-color="#5E4565"/>
</linearGradient>
<linearGradient id="paint7_linear_301_30354" x1="139" y1="121" x2="139" y2="133" gradientUnits="userSpaceOnUse">
<stop stop-color="#D195E2"/>
<stop offset="1" stop-color="#5E4565"/>
</linearGradient>
<linearGradient id="paint8_linear_301_30354" x1="133" y1="196" x2="133" y2="208" gradientUnits="userSpaceOnUse">
<stop stop-color="#D195E2"/>
<stop offset="1" stop-color="#5E4565"/>
</linearGradient>
<linearGradient id="paint9_linear_301_30354" x1="424" y1="133" x2="424" y2="145" gradientUnits="userSpaceOnUse">
<stop stop-color="#D195E2"/>
<stop offset="1" stop-color="#5E4565"/>
</linearGradient>
<linearGradient id="paint10_linear_301_30354" x1="106.5" y1="47" x2="106.5" y2="56" gradientUnits="userSpaceOnUse">
<stop stop-color="#D195E2"/>
<stop offset="1" stop-color="#5E4565"/>
</linearGradient>
<linearGradient id="paint11_linear_301_30354" x1="309.5" y1="51" x2="309.5" y2="60" gradientUnits="userSpaceOnUse">
<stop stop-color="#D195E2"/>
<stop offset="1" stop-color="#5E4565"/>
</linearGradient>
<linearGradient id="paint12_linear_301_30354" x1="235.5" y1="82" x2="235.5" y2="91" gradientUnits="userSpaceOnUse">
<stop stop-color="#D195E2"/>
<stop offset="1" stop-color="#5E4565"/>
</linearGradient>
<linearGradient id="paint13_linear_301_30354" x1="328.5" y1="148" x2="328.5" y2="157" gradientUnits="userSpaceOnUse">
<stop stop-color="#D195E2"/>
<stop offset="1" stop-color="#5E4565"/>
</linearGradient>
<linearGradient id="paint14_linear_301_30354" x1="447.5" y1="99" x2="447.5" y2="108" gradientUnits="userSpaceOnUse">
<stop stop-color="#D195E2"/>
<stop offset="1" stop-color="#5E4565"/>
</linearGradient>
<linearGradient id="paint15_linear_301_30354" x1="404.375" y1="183" x2="404.375" y2="189.75" gradientUnits="userSpaceOnUse">
<stop stop-color="#D195E2"/>
<stop offset="1" stop-color="#5E4565"/>
</linearGradient>
<linearGradient id="paint16_linear_301_30354" x1="382.375" y1="40" x2="382.375" y2="46.75" gradientUnits="userSpaceOnUse">
<stop stop-color="#D195E2"/>
<stop offset="1" stop-color="#5E4565"/>
</linearGradient>
<linearGradient id="paint17_linear_301_30354" x1="498.375" y1="223" x2="498.375" y2="229.75" gradientUnits="userSpaceOnUse">
<stop stop-color="#D195E2"/>
<stop offset="1" stop-color="#5E4565"/>
</linearGradient>
<linearGradient id="paint18_linear_301_30354" x1="205.375" y1="48" x2="205.375" y2="54.75" gradientUnits="userSpaceOnUse">
<stop stop-color="#D195E2"/>
<stop offset="1" stop-color="#5E4565"/>
</linearGradient>
<linearGradient id="paint19_linear_301_30354" x1="201.375" y1="132" x2="201.375" y2="138.75" gradientUnits="userSpaceOnUse">
<stop stop-color="#D195E2"/>
<stop offset="1" stop-color="#5E4565"/>
</linearGradient>
<linearGradient id="paint20_linear_301_30354" x1="3.375" y1="219" x2="3.375" y2="225.75" gradientUnits="userSpaceOnUse">
<stop stop-color="#D195E2"/>
<stop offset="1" stop-color="#5E4565"/>
</linearGradient>
<linearGradient id="paint21_linear_301_30354" x1="68.375" y1="148" x2="68.375" y2="154.75" gradientUnits="userSpaceOnUse">
<stop stop-color="#D195E2"/>
<stop offset="1" stop-color="#5E4565"/>
</linearGradient>
</defs>
</svg>
