<svg width="87" height="40" viewBox="0 0 87 40" fill="none" xmlns="http://www.w3.org/2000/svg">
<path fill-rule="evenodd" clip-rule="evenodd" d="M45.65 1.625C39.354 1.625 34.25 6.72896 34.25 13.025V15.5583C34.25 21.8544 39.354 26.9583 45.65 26.9583H75.1C81.396 26.9583 86.5 21.8544 86.5 15.5583V13.025C86.5 6.72895 81.396 1.625 75.1 1.625H45.65ZM43.9392 19.1832C44.1216 19.3555 44.38 19.4416 44.7144 19.4416H48.5296C49.6746 19.4416 50.5664 19.1832 51.2048 18.6664C51.8533 18.1395 52.1776 17.3998 52.1776 16.4472C52.1776 15.7176 51.9698 15.1248 51.5544 14.6688C51.2253 14.3077 50.7915 14.0547 50.2528 13.9096C50.6944 13.7405 51.0573 13.4869 51.3416 13.1488C51.7165 12.703 51.904 12.1558 51.904 11.5072C51.904 10.9296 51.7621 10.4331 51.4784 10.0176C51.2048 9.60217 50.8045 9.28297 50.2776 9.06004C49.7506 8.8371 49.1122 8.72564 48.3624 8.72564H44.7144C44.38 8.72564 44.1216 8.81684 43.9392 8.99924C43.7669 9.1715 43.6808 9.42484 43.6808 9.75924V18.408C43.6808 18.7424 43.7669 19.0008 43.9392 19.1832ZM48.2864 17.9672H45.5504V14.7448H48.2864C48.9754 14.7448 49.4821 14.8766 49.8064 15.14C50.1306 15.4035 50.2928 15.8088 50.2928 16.356C50.2928 16.8931 50.1306 17.2984 49.8064 17.572C49.4821 17.8355 48.9754 17.9672 48.2864 17.9672ZM48.028 13.2704H45.5504V10.2H48.028C48.6968 10.2 49.1933 10.3318 49.5176 10.5952C49.852 10.8486 50.0192 11.2286 50.0192 11.7352C50.0192 12.2419 49.852 12.627 49.5176 12.8904C49.1933 13.1438 48.6968 13.2704 48.028 13.2704ZM58.66 19.1832C58.8424 19.3555 59.1008 19.4416 59.4352 19.4416H64.8616C65.1149 19.4416 65.3075 19.3758 65.4392 19.244C65.5811 19.1123 65.652 18.9198 65.652 18.6664C65.652 18.4131 65.5811 18.2206 65.4392 18.0888C65.3075 17.9571 65.1149 17.8912 64.8616 17.8912H60.2712V14.7752H64.5272C64.7907 14.7752 64.9883 14.7094 65.12 14.5776C65.2517 14.4459 65.3176 14.2534 65.3176 14C65.3176 13.7467 65.2517 13.5542 65.12 13.4224C64.9883 13.2907 64.7907 13.2248 64.5272 13.2248H60.2712V10.276H64.8616C65.1149 10.276 65.3075 10.2102 65.4392 10.0784C65.5811 9.93657 65.652 9.73897 65.652 9.48564C65.652 9.24244 65.5811 9.05497 65.4392 8.92324C65.3075 8.7915 65.1149 8.72564 64.8616 8.72564H59.4352C59.1008 8.72564 58.8424 8.81684 58.66 8.99924C58.4877 9.1715 58.4016 9.42484 58.4016 9.75924V18.408C58.4016 18.7424 58.4877 19.0008 58.66 19.1832ZM71.9855 19.1832C72.1679 19.3555 72.4263 19.4416 72.7607 19.4416H78.1871C78.4405 19.4416 78.633 19.3758 78.7647 19.244C78.9066 19.1123 78.9775 18.9198 78.9775 18.6664C78.9775 18.4131 78.9066 18.2206 78.7647 18.0888C78.633 17.9571 78.4405 17.8912 78.1871 17.8912H73.5967V14.7752H77.8527C78.1162 14.7752 78.3138 14.7094 78.4455 14.5776C78.5773 14.4459 78.6431 14.2534 78.6431 14C78.6431 13.7467 78.5773 13.5542 78.4455 13.4224C78.3138 13.2907 78.1162 13.2248 77.8527 13.2248H73.5967V10.276H78.1871C78.4405 10.276 78.633 10.2102 78.7647 10.0784C78.9066 9.93657 78.9775 9.73897 78.9775 9.48564C78.9775 9.24244 78.9066 9.05497 78.7647 8.92324C78.633 8.7915 78.4405 8.72564 78.1871 8.72564H72.7607C72.4263 8.72564 72.1679 8.81684 71.9855 8.99924C71.8133 9.1715 71.7271 9.42484 71.7271 9.75924V18.408C71.7271 18.7424 71.8133 19.0008 71.9855 19.1832Z" fill="white"/>
<path d="M39.2628 37.9751C39.126 37.9751 39.0196 37.9396 38.9436 37.8687C38.8727 37.7927 38.8372 37.6863 38.8372 37.5495V33.0427C38.8372 32.9059 38.8727 32.802 38.9436 32.7311C39.0196 32.6551 39.126 32.6171 39.2628 32.6171H40.7296C41.6112 32.6171 42.2902 32.8476 42.7664 33.3087C43.2478 33.7647 43.4884 34.4259 43.4884 35.2923C43.4884 35.723 43.4276 36.1055 43.306 36.4399C43.1844 36.7743 43.0046 37.0555 42.7664 37.2835C42.5334 37.5064 42.2471 37.6787 41.9076 37.8003C41.5682 37.9168 41.1755 37.9751 40.7296 37.9751H39.2628ZM39.6276 37.3139H40.684C41.0184 37.3139 41.3072 37.2734 41.5504 37.1923C41.7987 37.1062 42.0064 36.9795 42.1736 36.8123C42.3408 36.6451 42.465 36.4348 42.546 36.1815C42.6271 35.9282 42.6676 35.6318 42.6676 35.2923C42.6676 34.6184 42.5004 34.1143 42.166 33.7799C41.8367 33.4455 41.3427 33.2783 40.684 33.2783H39.6276V37.3139ZM53.2543 37.9751C53.1175 37.9751 53.0111 37.9396 52.9351 37.8687C52.8641 37.7927 52.8287 37.6863 52.8287 37.5495V33.0427C52.8287 32.9059 52.8641 32.802 52.9351 32.7311C53.0111 32.6551 53.1175 32.6171 53.2543 32.6171H56.0283C56.1347 32.6171 56.2157 32.645 56.2715 32.7007C56.3272 32.7514 56.3551 32.8274 56.3551 32.9287C56.3551 33.0351 56.3272 33.1162 56.2715 33.1719C56.2157 33.2276 56.1347 33.2555 56.0283 33.2555H53.5887V34.9351H55.8611C55.9725 34.9351 56.0536 34.963 56.1043 35.0187C56.16 35.0744 56.1879 35.153 56.1879 35.2543C56.1879 35.3607 56.16 35.4418 56.1043 35.4975C56.0536 35.5482 55.9725 35.5735 55.8611 35.5735H53.5887V37.3367H56.0283C56.1347 37.3367 56.2157 37.3646 56.2715 37.4203C56.3272 37.476 56.3551 37.5546 56.3551 37.6559C56.3551 37.7623 56.3272 37.8434 56.2715 37.8991C56.2157 37.9498 56.1347 37.9751 56.0283 37.9751H53.2543ZM67.2998 38.0435C67.0668 38.0435 66.8388 38.0258 66.6158 37.9903C66.3929 37.9548 66.1826 37.9016 65.985 37.8307C65.7874 37.7547 65.6101 37.6635 65.453 37.5571C65.377 37.5014 65.3238 37.438 65.2934 37.3671C65.2681 37.2962 65.2605 37.2278 65.2706 37.1619C65.2858 37.091 65.3162 37.0302 65.3618 36.9795C65.4074 36.9288 65.4632 36.8984 65.529 36.8883C65.5949 36.8731 65.6684 36.8934 65.7494 36.9491C65.9774 37.096 66.2181 37.205 66.4714 37.2759C66.7248 37.3418 67.0009 37.3747 67.2998 37.3747C67.7305 37.3747 68.0472 37.2987 68.2498 37.1467C68.4576 36.9896 68.5614 36.787 68.5614 36.5387C68.5614 36.336 68.488 36.1764 68.341 36.0599C68.1941 35.9383 67.9484 35.842 67.6038 35.7711L66.7906 35.6039C66.3093 35.5026 65.9496 35.3354 65.7114 35.1023C65.4784 34.8692 65.3618 34.5551 65.3618 34.1599C65.3618 33.9218 65.41 33.7039 65.5062 33.5063C65.6076 33.3087 65.7469 33.139 65.9242 32.9971C66.1016 32.8502 66.3144 32.7387 66.5626 32.6627C66.8109 32.5867 67.082 32.5487 67.3758 32.5487C67.69 32.5487 67.9838 32.5892 68.2574 32.6703C68.5361 32.7514 68.7844 32.8755 69.0022 33.0427C69.0681 33.0883 69.1112 33.1466 69.1314 33.2175C69.1568 33.2834 69.1618 33.3492 69.1466 33.4151C69.1365 33.481 69.1086 33.5367 69.063 33.5823C69.0174 33.6279 68.9592 33.6558 68.8882 33.6659C68.8173 33.671 68.7388 33.6456 68.6526 33.5899C68.455 33.4582 68.2524 33.3644 68.0446 33.3087C67.842 33.2479 67.6165 33.2175 67.3682 33.2175C67.12 33.2175 66.9021 33.2555 66.7146 33.3315C66.5322 33.4075 66.3904 33.5139 66.289 33.6507C66.1928 33.7875 66.1446 33.9496 66.1446 34.1371C66.1446 34.3499 66.213 34.5196 66.3498 34.6463C66.4866 34.773 66.7146 34.8692 67.0338 34.9351L67.8394 35.1023C68.3461 35.2087 68.7236 35.3734 68.9718 35.5963C69.2201 35.8192 69.3442 36.1156 69.3442 36.4855C69.3442 36.7236 69.2961 36.939 69.1998 37.1315C69.1036 37.319 68.9668 37.4811 68.7894 37.6179C68.6121 37.7547 68.3968 37.8611 68.1434 37.9371C67.8952 38.008 67.614 38.0435 67.2998 38.0435ZM78.9208 38.0283C78.7941 38.0283 78.6953 37.9928 78.6244 37.9219C78.5585 37.851 78.5256 37.7522 78.5256 37.6255V32.9591C78.5256 32.8274 78.5585 32.7286 78.6244 32.6627C78.6953 32.5968 78.7941 32.5639 78.9208 32.5639C79.0474 32.5639 79.1437 32.5968 79.2096 32.6627C79.2805 32.7286 79.316 32.8274 79.316 32.9591V35.0263H79.3312L81.6644 32.7691C81.7404 32.6982 81.8113 32.6475 81.8772 32.6171C81.9481 32.5816 82.0266 32.5639 82.1128 32.5639C82.2293 32.5639 82.3129 32.5943 82.3636 32.6551C82.4193 32.7108 82.4421 32.7792 82.432 32.8603C82.4218 32.9414 82.3788 33.0199 82.3028 33.0959L79.8784 35.4063L79.8936 35.0187L82.4168 37.4507C82.508 37.5368 82.5561 37.6255 82.5612 37.7167C82.5662 37.8079 82.5384 37.8839 82.4776 37.9447C82.4168 38.0004 82.3306 38.0283 82.2192 38.0283C82.1178 38.0283 82.0368 38.008 81.976 37.9675C81.9152 37.927 81.8442 37.8687 81.7632 37.7927L79.3312 35.4747H79.316V37.6255C79.316 37.7522 79.283 37.851 79.2172 37.9219C79.1513 37.9928 79.0525 38.0283 78.9208 38.0283Z" fill="white"/>
<path fill-rule="evenodd" clip-rule="evenodd" d="M27.8109 36.5842C28.4536 36.5842 28.9747 37.1053 28.9747 37.748V37.8546C28.9747 38.5562 28.4059 39.125 27.7043 39.125H27.4898C23.1557 39.125 20.7879 36.3533 18.982 33.0734C17.5774 33.5815 16.0123 33.8587 14.4071 33.8587C6.22033 33.8587 0 26.7446 0 17.3668C0 7.98913 6.22033 0.875 14.4071 0.875C17.4978 0.875 20.3053 1.87906 22.6061 3.63C21.0889 4.43874 20.0656 5.96788 20.0656 7.7211C20.0656 10.3184 22.3115 12.424 25.0819 12.424C26.1677 12.424 27.1728 12.1006 27.9938 11.551C28.5525 13.3452 28.8543 15.3011 28.8543 17.3668C28.8543 23.9266 25.8445 29.3315 21.1892 32.0571C22.7142 34.5978 24.6004 36.5842 27.8109 36.5842ZM14.4071 31.1793C15.0607 31.1793 15.7016 31.1211 16.3298 31.0127C17.0963 30.8805 17.4642 30.0328 17.1209 29.3349C15.4637 25.9656 13.8784 23.0027 10.7551 23.0027C8.68894 23.0027 6.88467 24.2088 5.87471 26.1785C5.6707 26.5763 5.7459 27.0559 6.04367 27.3894C8.1775 29.7796 11.0838 31.1793 14.4071 31.1793ZM25.9977 3.22717C26.1095 2.92798 26.5813 2.92798 26.6932 3.22717C27.2945 4.83535 28.1147 5.6468 29.6899 6.24919C29.9846 6.36186 29.9846 6.82134 29.6899 6.93401C28.1147 7.53639 27.2945 8.34785 26.6932 9.95602C26.5813 10.2552 26.1095 10.2552 25.9977 9.95602C25.3964 8.34785 24.5762 7.53639 23.0009 6.93401C22.7063 6.82134 22.7063 6.36186 23.0009 6.24919C24.5762 5.6468 25.3964 4.83534 25.9977 3.22717Z" fill="white"/>
</svg>
