<svg width="87" height="39" viewBox="0 0 87 39" fill="none" xmlns="http://www.w3.org/2000/svg">
<path fill-rule="evenodd" clip-rule="evenodd" d="M45.65 0.75C39.354 0.75 34.25 5.85396 34.25 12.15V14.6833C34.25 20.9794 39.354 26.0833 45.65 26.0833H75.1C81.396 26.0833 86.5 20.9794 86.5 14.6833V12.15C86.5 5.85395 81.396 0.75 75.1 0.75H45.65ZM43.9392 18.3083C44.1216 18.4805 44.38 18.5667 44.7144 18.5667H48.5296C49.6747 18.5667 50.5664 18.3083 51.2048 17.7915C51.8533 17.2645 52.1776 16.5248 52.1776 15.5723C52.1776 14.8427 51.9699 14.2499 51.5544 13.7939C51.2254 13.4327 50.7915 13.1797 50.2528 13.0346C50.6944 12.8655 51.0573 12.6119 51.3416 12.2739C51.7165 11.828 51.904 11.2808 51.904 10.6323C51.904 10.0547 51.7621 9.55812 51.4784 9.14265C51.2048 8.72718 50.8045 8.40798 50.2776 8.18505C49.7507 7.96212 49.1123 7.85065 48.3624 7.85065H44.7144C44.38 7.85065 44.1216 7.94185 43.9392 8.12425C43.7669 8.29652 43.6808 8.54985 43.6808 8.88425V17.5331C43.6808 17.8675 43.7669 18.1259 43.9392 18.3083ZM48.2864 17.0923H45.5504V13.8699H48.2864C48.9755 13.8699 49.4821 14.0016 49.8064 14.265C50.1307 14.5285 50.2928 14.9339 50.2928 15.4811C50.2928 16.0181 50.1307 16.4235 49.8064 16.6971C49.4821 16.9605 48.9755 17.0923 48.2864 17.0923ZM48.028 12.3955H45.5504V9.32505H48.028C48.6968 9.32505 49.1933 9.45678 49.5176 9.72025C49.852 9.97358 50.0192 10.3536 50.0192 10.8603C50.0192 11.3669 49.852 11.752 49.5176 12.0155C49.1933 12.2688 48.6968 12.3955 48.028 12.3955ZM58.66 18.3083C58.8424 18.4805 59.1008 18.5667 59.4352 18.5667H64.8616C65.115 18.5667 65.3075 18.5008 65.4392 18.3691C65.5811 18.2373 65.652 18.0448 65.652 17.7915C65.652 17.5381 65.5811 17.3456 65.4392 17.2139C65.3075 17.0821 65.115 17.0163 64.8616 17.0163H60.2712V13.9003H64.5272C64.7907 13.9003 64.9883 13.8344 65.12 13.7027C65.2518 13.5709 65.3176 13.3784 65.3176 13.1251C65.3176 12.8717 65.2518 12.6792 65.12 12.5475C64.9883 12.4157 64.7907 12.3499 64.5272 12.3499H60.2712V9.40105H64.8616C65.115 9.40105 65.3075 9.33518 65.4392 9.20345C65.5811 9.06158 65.652 8.86398 65.652 8.61065C65.652 8.36745 65.5811 8.17998 65.4392 8.04825C65.3075 7.91652 65.115 7.85065 64.8616 7.85065H59.4352C59.1008 7.85065 58.8424 7.94185 58.66 8.12425C58.4878 8.29652 58.4016 8.54985 58.4016 8.88425V17.5331C58.4016 17.8675 58.4878 18.1259 58.66 18.3083ZM71.9856 18.3083C72.168 18.4805 72.4264 18.5667 72.7608 18.5667H78.1872C78.4405 18.5667 78.633 18.5008 78.7648 18.3691C78.9066 18.2373 78.9776 18.0448 78.9776 17.7915C78.9776 17.5381 78.9066 17.3456 78.7648 17.2139C78.633 17.0821 78.4405 17.0163 78.1872 17.0163H73.5968V13.9003H77.8528C78.1162 13.9003 78.3138 13.8344 78.4456 13.7027C78.5773 13.5709 78.6432 13.3784 78.6432 13.1251C78.6432 12.8717 78.5773 12.6792 78.4456 12.5475C78.3138 12.4157 78.1162 12.3499 77.8528 12.3499H73.5968V9.40105H78.1872C78.4405 9.40105 78.633 9.33518 78.7648 9.20345C78.9066 9.06158 78.9776 8.86398 78.9776 8.61065C78.9776 8.36745 78.9066 8.17998 78.7648 8.04825C78.633 7.91652 78.4405 7.85065 78.1872 7.85065H72.7608C72.4264 7.85065 72.168 7.94185 71.9856 8.12425C71.8133 8.29652 71.7272 8.54985 71.7272 8.88425V17.5331C71.7272 17.8675 71.8133 18.1259 71.9856 18.3083Z" fill="url(#paint0_linear_2736_4257)"/>
<path d="M39.2628 37.1001C39.126 37.1001 39.0196 37.0646 38.9436 36.9937C38.8727 36.9177 38.8372 36.8113 38.8372 36.6745V32.1677C38.8372 32.0309 38.8727 31.927 38.9436 31.8561C39.0196 31.7801 39.126 31.7421 39.2628 31.7421H40.7296C41.6112 31.7421 42.2902 31.9726 42.7664 32.4337C43.2478 32.8897 43.4884 33.5509 43.4884 34.4173C43.4884 34.848 43.4276 35.2305 43.306 35.5649C43.1844 35.8993 43.0046 36.1805 42.7664 36.4085C42.5334 36.6314 42.2471 36.8037 41.9076 36.9253C41.5682 37.0418 41.1755 37.1001 40.7296 37.1001H39.2628ZM39.6276 36.4389H40.684C41.0184 36.4389 41.3072 36.3984 41.5504 36.3173C41.7987 36.2312 42.0064 36.1045 42.1736 35.9373C42.3408 35.7701 42.465 35.5598 42.546 35.3065C42.6271 35.0532 42.6676 34.7568 42.6676 34.4173C42.6676 33.7434 42.5004 33.2393 42.166 32.9049C41.8367 32.5705 41.3427 32.4033 40.684 32.4033H39.6276V36.4389ZM53.2543 37.1001C53.1175 37.1001 53.0111 37.0646 52.9351 36.9937C52.8641 36.9177 52.8287 36.8113 52.8287 36.6745V32.1677C52.8287 32.0309 52.8641 31.927 52.9351 31.8561C53.0111 31.7801 53.1175 31.7421 53.2543 31.7421H56.0283C56.1347 31.7421 56.2157 31.77 56.2715 31.8257C56.3272 31.8764 56.3551 31.9524 56.3551 32.0537C56.3551 32.1601 56.3272 32.2412 56.2715 32.2969C56.2157 32.3526 56.1347 32.3805 56.0283 32.3805H53.5887V34.0601H55.8611C55.9725 34.0601 56.0536 34.088 56.1043 34.1437C56.16 34.1994 56.1879 34.278 56.1879 34.3793C56.1879 34.4857 56.16 34.5668 56.1043 34.6225C56.0536 34.6732 55.9725 34.6985 55.8611 34.6985H53.5887V36.4617H56.0283C56.1347 36.4617 56.2157 36.4896 56.2715 36.5453C56.3272 36.601 56.3551 36.6796 56.3551 36.7809C56.3551 36.8873 56.3272 36.9684 56.2715 37.0241C56.2157 37.0748 56.1347 37.1001 56.0283 37.1001H53.2543ZM67.2998 37.1685C67.0668 37.1685 66.8388 37.1508 66.6158 37.1153C66.3929 37.0798 66.1826 37.0266 65.985 36.9557C65.7874 36.8797 65.6101 36.7885 65.453 36.6821C65.377 36.6264 65.3238 36.563 65.2934 36.4921C65.2681 36.4212 65.2605 36.3528 65.2706 36.2869C65.2858 36.216 65.3162 36.1552 65.3618 36.1045C65.4074 36.0538 65.4632 36.0234 65.529 36.0133C65.5949 35.9981 65.6684 36.0184 65.7494 36.0741C65.9774 36.221 66.2181 36.33 66.4714 36.4009C66.7248 36.4668 67.0009 36.4997 67.2998 36.4997C67.7305 36.4997 68.0472 36.4237 68.2498 36.2717C68.4576 36.1146 68.5614 35.912 68.5614 35.6637C68.5614 35.461 68.488 35.3014 68.341 35.1849C68.1941 35.0633 67.9484 34.967 67.6038 34.8961L66.7906 34.7289C66.3093 34.6276 65.9496 34.4604 65.7114 34.2273C65.4784 33.9942 65.3618 33.6801 65.3618 33.2849C65.3618 33.0468 65.41 32.8289 65.5062 32.6313C65.6076 32.4337 65.7469 32.264 65.9242 32.1221C66.1016 31.9752 66.3144 31.8637 66.5626 31.7877C66.8109 31.7117 67.082 31.6737 67.3758 31.6737C67.69 31.6737 67.9838 31.7142 68.2574 31.7953C68.5361 31.8764 68.7844 32.0005 69.0022 32.1677C69.0681 32.2133 69.1112 32.2716 69.1314 32.3425C69.1568 32.4084 69.1618 32.4742 69.1466 32.5401C69.1365 32.606 69.1086 32.6617 69.063 32.7073C69.0174 32.7529 68.9592 32.7808 68.8882 32.7909C68.8173 32.796 68.7388 32.7706 68.6526 32.7149C68.455 32.5832 68.2524 32.4894 68.0446 32.4337C67.842 32.3729 67.6165 32.3425 67.3682 32.3425C67.12 32.3425 66.9021 32.3805 66.7146 32.4565C66.5322 32.5325 66.3904 32.6389 66.289 32.7757C66.1928 32.9125 66.1446 33.0746 66.1446 33.2621C66.1446 33.4749 66.213 33.6446 66.3498 33.7713C66.4866 33.898 66.7146 33.9942 67.0338 34.0601L67.8394 34.2273C68.3461 34.3337 68.7236 34.4984 68.9718 34.7213C69.2201 34.9442 69.3442 35.2406 69.3442 35.6105C69.3442 35.8486 69.2961 36.064 69.1998 36.2565C69.1036 36.444 68.9668 36.6061 68.7894 36.7429C68.6121 36.8797 68.3968 36.9861 68.1434 37.0621C67.8952 37.133 67.614 37.1685 67.2998 37.1685ZM78.9208 37.1533C78.7941 37.1533 78.6953 37.1178 78.6244 37.0469C78.5585 36.976 78.5256 36.8772 78.5256 36.7505V32.0841C78.5256 31.9524 78.5585 31.8536 78.6244 31.7877C78.6953 31.7218 78.7941 31.6889 78.9208 31.6889C79.0474 31.6889 79.1437 31.7218 79.2096 31.7877C79.2805 31.8536 79.316 31.9524 79.316 32.0841V34.1513H79.3312L81.6644 31.8941C81.7404 31.8232 81.8113 31.7725 81.8772 31.7421C81.9481 31.7066 82.0266 31.6889 82.1128 31.6889C82.2293 31.6889 82.3129 31.7193 82.3636 31.7801C82.4193 31.8358 82.4421 31.9042 82.432 31.9853C82.4218 32.0664 82.3788 32.1449 82.3028 32.2209L79.8784 34.5313L79.8936 34.1437L82.4168 36.5757C82.508 36.6618 82.5561 36.7505 82.5612 36.8417C82.5662 36.9329 82.5384 37.0089 82.4776 37.0697C82.4168 37.1254 82.3306 37.1533 82.2192 37.1533C82.1178 37.1533 82.0368 37.133 81.976 37.0925C81.9152 37.052 81.8442 36.9937 81.7632 36.9177L79.3312 34.5997H79.316V36.7505C79.316 36.8772 79.283 36.976 79.2172 37.0469C79.1513 37.1178 79.0525 37.1533 78.9208 37.1533Z" fill="url(#paint1_linear_2736_4257)"/>
<path fill-rule="evenodd" clip-rule="evenodd" d="M27.8109 35.7092C28.4536 35.7092 28.9747 36.2303 28.9747 36.873V36.9796C28.9747 37.6812 28.4059 38.25 27.7043 38.25H27.4898C23.1557 38.25 20.7879 35.4783 18.982 32.1984C17.5774 32.7065 16.0123 32.9837 14.4071 32.9837C6.22033 32.9837 0 25.8696 0 16.4918C0 7.11413 6.22033 0 14.4071 0C17.4977 0 20.3052 1.00405 22.6061 2.75497C21.0889 3.56372 20.0656 5.09285 20.0656 6.84606C20.0656 9.44338 22.3115 11.5489 25.0819 11.5489C26.1677 11.5489 27.1728 11.2256 27.9938 10.676C28.5525 12.4702 28.8543 14.4261 28.8543 16.4918C28.8543 23.0516 25.8445 28.4565 21.1892 31.1821C22.7142 33.7228 24.6004 35.7092 27.8109 35.7092ZM14.4071 30.3043C15.0607 30.3043 15.7016 30.2461 16.3298 30.1377C17.0963 30.0055 17.4642 29.1578 17.1209 28.4599C15.4637 25.0906 13.8784 22.1277 10.7551 22.1277C8.68894 22.1277 6.88467 23.3338 5.87471 25.3035C5.6707 25.7013 5.7459 26.1809 6.04367 26.5144C8.1775 28.9046 11.0838 30.3043 14.4071 30.3043ZM25.9976 2.35223C26.1095 2.05304 26.5813 2.05304 26.6932 2.35223C27.2944 3.9604 28.1146 4.77185 29.6899 5.37424C29.9845 5.48691 29.9845 5.94639 29.6899 6.05906C28.1146 6.66145 27.2944 7.4729 26.6932 9.08107C26.5813 9.38027 26.1095 9.38027 25.9976 9.08107C25.3964 7.4729 24.5762 6.66145 23.0009 6.05906C22.7062 5.94639 22.7062 5.48691 23.0009 5.37424C24.5762 4.77185 25.3964 3.9604 25.9976 2.35223Z" fill="url(#paint2_linear_2736_4257)"/>
<defs>
<linearGradient id="paint0_linear_2736_4257" x1="60.375" y1="0.749999" x2="32.4112" y2="84.4388" gradientUnits="userSpaceOnUse">
<stop stop-color="#1F1F1F"/>
<stop offset="1" stop-color="#CF32FD"/>
</linearGradient>
<linearGradient id="paint1_linear_2736_4257" x1="60.5" y1="32.1001" x2="58.4923" y2="53.9496" gradientUnits="userSpaceOnUse">
<stop stop-color="#1F1F1F"/>
<stop offset="1" stop-color="#CF32FD"/>
</linearGradient>
<linearGradient id="paint2_linear_2736_4257" x1="21" y1="0.125" x2="-26" y2="46.125" gradientUnits="userSpaceOnUse">
<stop offset="0.159" stop-color="#1F1F1F"/>
<stop offset="0.769" stop-color="#CF32FD"/>
</linearGradient>
</defs>
</svg>
